<svg width="168" height="168" viewBox="0 0 168 168" fill="none" xmlns="http://www.w3.org/2000/svg">
<path d="M154 83C154 123.041 123.988 144 84.5 144C45.0116 144 13 111.541 13 71.5C13 31.4594 38.0116 12 77.5 12C116.988 12 154 42.9594 154 83Z" fill="#F8C514"/>
<path d="M45.8049 102.606C45.4632 102.006 45.3506 101.525 45.2046 101.054C44.9425 100.21 44.8783 99.4403 45.9483 99.1367C46.8336 98.8853 47.1728 99.3799 47.5308 100.144C48.2132 101.6 49.0598 102.98 49.8655 104.376C51.4574 107.134 53.7386 109.281 56.0651 111.398C57.3676 112.584 58.5769 113.872 59.8275 115.115C59.9357 115.222 60.016 115.383 60.1446 115.441C62.3821 116.464 64.5746 117.614 66.8826 118.442C68.7372 119.108 70.7142 119.618 72.6704 119.775C76.2578 120.062 79.7915 119.764 83.3412 118.778C85.8323 118.087 87.8174 116.483 90.2616 115.8C91.9259 115.335 92.5309 113.554 93.7213 112.472C94.4059 111.85 94.9206 111.045 95.5552 110.362C95.7178 110.187 96.045 110.166 96.2964 110.074C96.3231 110.343 96.4578 110.662 96.36 110.873C95.2434 113.277 93.6367 115.353 91.526 116.912C87.5862 119.82 83.1556 121.494 78.2241 121.919C73.4799 122.329 68.8652 121.441 64.468 120.062C61.6299 119.171 59.2172 116.923 56.6185 115.275C56.2854 115.064 55.988 114.798 55.6618 114.576C51.4168 111.683 48.5938 107.602 46.1509 103.204C46.0735 103.064 46.0613 102.888 45.8049 102.606V102.606ZM48.5854 56.28C45.6708 55.4425 43.0341 54.5509 40.7573 52.8838C38.8577 51.4933 37.0236 50.0111 35.1957 48.5259C34.8584 48.2519 34.6681 47.7815 34.4498 47.3804C34.0832 46.7068 34.3831 46.436 35.0711 46.324C35.9507 46.1805 36.591 46.1723 37.4222 46.8931C39.1047 48.3519 41.0436 49.5311 42.9422 50.7203C45.4972 52.3207 48.12 53.6014 51.2321 54.0818C52.7841 54.3213 54.444 54.46 55.9431 54.9159C57.5155 55.3944 59.0825 55.2761 60.5099 55.0864C63.1516 54.735 65.8274 55.9578 68.4027 54.7759C68.6978 54.6406 69.0326 54.5849 69.3544 54.5169C69.7867 54.4254 70.1325 53.3708 70.6009 54.3143C70.7006 54.5157 70.0928 55.1446 69.7276 55.4878C67.7342 57.3594 65.4291 57.9468 62.6744 57.6152C58.0676 57.0609 53.4262 56.7922 48.5854 56.28V56.28ZM127.649 67.8333C129.489 67.3652 131.16 66.942 132.83 66.5189C133.192 66.427 133.554 66.3345 133.915 66.2423C133.776 66.6076 133.576 66.9618 133.509 67.3394C133.211 69.0266 131.564 68.8964 130.512 69.4133C129.444 69.9386 128.099 69.9547 126.864 70.0771C124.545 70.3074 122.207 70.3709 119.896 70.6541C116.33 71.0914 112.839 70.5572 109.448 69.6728C105.644 68.6805 102.11 66.9014 98.8394 64.7111C97.2972 63.6786 95.9337 62.3667 94.5607 61.1029C94.2213 60.7905 94.1618 60.1733 93.9737 59.6963C94.4736 59.5925 94.9946 59.3465 95.468 59.4173C96.2222 59.5302 97.1701 59.6381 97.6388 60.1283C99.1823 61.7406 100.914 63.0346 102.797 64.2257C106.559 66.6038 110.299 68.2759 115.212 68.4037C118.739 68.4955 122.337 68.6893 125.863 67.9626C126.386 67.8547 126.941 67.9028 127.649 67.8333V67.8333Z" fill="black"/>
</svg>
